<?xml version="1.0" encoding="UTF-8"?>
<svg version="1.1" xmlns="http://www.w3.org/2000/svg" width="586" height="138">
<path d="M0 0 C193.38 0 386.76 0 586 0 C586 45.54 586 91.08 586 138 C392.62 138 199.24 138 0 138 C0 92.46 0 46.92 0 0 Z " fill="#FEFEFE" transform="translate(0,0)"/>
<path d="M0 0 C0.33 -0.33 0.66 -0.66 1 -1 C2.68608966 -1.07205511 4.37500659 -1.08386068 6.0625 -1.0625 C6.98160156 -1.05347656 7.90070313 -1.04445312 8.84765625 -1.03515625 C9.55792969 -1.02355469 10.26820313 -1.01195312 11 -1 C11.07445407 3.73222455 11.1287447 8.46410411 11.16479492 13.19677734 C11.17983176 14.80491072 11.20026672 16.41300344 11.22631836 18.02099609 C11.26292822 20.33962064 11.27977722 22.65770049 11.29296875 24.9765625 C11.30845261 25.68930328 11.32393646 26.40204407 11.33988953 27.13638306 C11.3414557 31.83816647 10.50227755 35.01942524 8 39 C5.4375 40.8125 5.4375 40.8125 3 42 C2.01 42.495 2.01 42.495 1 43 C-5.4635357 43.50314949 -11.53198856 43.9257518 -17 40 C-18.875 37.8125 -18.875 37.8125 -20 36 C-18.3125 35.3125 -18.3125 35.3125 -16 35 C-15.319375 35.45375 -14.63875 35.9075 -13.9375 36.375 C-9.43844491 38.86383898 -5.10550619 38.69243939 0 39 C0 35.37 0 31.74 0 28 C-1.65 28.66 -3.3 29.32 -5 30 C-8.88098776 30.49544525 -10.67295498 30.16672883 -14.1875 28.375 C-18.19654408 24.989585 -19.73067989 22.42055604 -20.31640625 17.15625 C-20.50280155 12.2979467 -20.41411762 8.87424832 -18.3125 4.4375 C-12.74307582 -1.43297413 -7.72787425 -2.08058153 0 0 Z " fill="#3A3D40" transform="translate(216,61)"/>
<path d="M0 0 C3 2 3 2 5 4 C5.680625 3.34 6.36125 2.68 7.0625 2 C10.73616939 -0.50122172 12.63083745 -0.54614532 17 0 C20.5386994 1.65139305 21.81070153 2.71605229 24 6 C24.22705078 8.54370117 24.22705078 8.54370117 24.1953125 11.54296875 C24.18886719 12.61611328 24.18242187 13.68925781 24.17578125 14.79492188 C24.15902344 15.91447266 24.14226562 17.03402344 24.125 18.1875 C24.11597656 19.31865234 24.10695312 20.44980469 24.09765625 21.61523438 C24.07406862 24.41036828 24.041153 27.20507845 24 30 C20.7 30 17.4 30 14 30 C14 21.09 14 12.18 14 3 C9.02378257 5.50056593 9.02378257 5.50056593 7 9 C6.63423946 11.31923274 6.63423946 11.31923274 6.5859375 13.88671875 C6.54726562 14.82451172 6.50859375 15.76230469 6.46875 16.72851562 C6.4378125 17.70498047 6.406875 18.68144531 6.375 19.6875 C6.33632812 20.67556641 6.29765625 21.66363281 6.2578125 22.68164062 C6.16354601 25.1207861 6.0806841 27.56036747 6 30 C2.37 30 -1.26 30 -5 30 C-5 21.42 -5 12.84 -5 4 C-10.34220909 6.94745259 -10.34220909 6.94745259 -12 12 C-12.35529072 15.10118042 -12.50686572 18.19424717 -12.625 21.3125 C-12.68300781 22.56643555 -12.68300781 22.56643555 -12.7421875 23.84570312 C-12.83595159 25.89679259 -12.91904245 27.94836515 -13 30 C-16.3 30 -19.6 30 -23 30 C-23 20.43 -23 10.86 -23 1 C-19.7 1 -16.4 1 -13 1 C-13 1.66 -13 2.32 -13 3 C-12.34 2.505 -11.68 2.01 -11 1.5 C-7.20555449 -0.39722275 -4.17163788 -0.79900322 0 0 Z " fill="#34373A" transform="translate(130,60)"/>
<path d="M0 0 C6.44532671 2.93867386 9.13816878 10.2660637 12.05859375 16.39453125 C14.06244366 13.38875638 15.31979117 10.54475861 16.68359375 7.20703125 C17.35261719 5.57701172 17.35261719 5.57701172 18.03515625 3.9140625 C18.37289062 3.08261719 18.710625 2.25117187 19.05859375 1.39453125 C20.37859375 1.72453125 21.69859375 2.05453125 23.05859375 2.39453125 C21.29303363 7.43446528 19.51453783 12.46957482 17.72412109 17.50073242 C17.11738868 19.21139423 16.51415345 20.92330074 15.91455078 22.63647461 C15.04995849 25.10479242 14.17271198 27.56829779 13.29296875 30.03125 C13.02925476 30.79289963 12.76554077 31.55454926 12.49383545 32.33927917 C10.7528019 37.16367679 8.90334444 41.9721559 4.05859375 44.39453125 C-0.18111683 44.63007073 -3.30318927 44.72299011 -6.94140625 42.39453125 C-6.61140625 41.07453125 -6.28140625 39.75453125 -5.94140625 38.39453125 C-4.45640625 38.88953125 -4.45640625 38.88953125 -2.94140625 39.39453125 C-0.608408 39.43407359 1.72567564 39.43854857 4.05859375 39.39453125 C6.45041342 35.46986695 6.45041342 35.46986695 6.83227539 31.0324707 C5.94720843 28.01475264 4.68571627 25.6008898 3.1171875 22.875 C2.53388672 21.85341797 1.95058594 20.83183594 1.34960938 19.77929688 C0.73794922 18.72419922 0.12628906 17.66910156 -0.50390625 16.58203125 C-1.11943359 15.50759766 -1.73496094 14.43316406 -2.36914062 13.32617188 C-3.88704969 10.67865607 -5.41130389 8.03501269 -6.94140625 5.39453125 C-10.37260775 6.93389628 -12.27961072 8.46415473 -14.125 11.84375 C-16.01588912 17.7516476 -15.79359553 24.23821492 -15.94140625 30.39453125 C-19.24140625 30.39453125 -22.54140625 30.39453125 -25.94140625 30.39453125 C-25.94140625 20.82453125 -25.94140625 11.25453125 -25.94140625 1.39453125 C-22.64140625 1.39453125 -19.34140625 1.39453125 -15.94140625 1.39453125 C-15.61140625 2.71453125 -15.28140625 4.03453125 -14.94140625 5.39453125 C-14.19890625 4.54890625 -13.45640625 3.70328125 -12.69140625 2.83203125 C-8.72594209 -0.36471409 -4.95295307 -0.56269504 0 0 Z " fill="#303337" transform="translate(487.94140625,59.60546875)"/>
<path d="M0 0 C3.85153531 2.2220396 7.01817883 4.83964212 10.25 7.875 C9.26 8.865 8.27 9.855 7.25 10.875 C5.81770833 9.63802083 4.38541667 8.40104167 2.953125 7.1640625 C-0.97450541 4.19131471 -3.87511194 3.6005272 -8.8125 3.625 C-10.37677734 3.61726563 -10.37677734 3.61726563 -11.97265625 3.609375 C-14.96128985 3.67427423 -14.96128985 3.67427423 -17.75 5.875 C-18.21839896 9.04409169 -18.21839896 9.04409169 -18.1484375 12.78125 C-18.15130768 13.46175415 -18.15417786 14.1422583 -18.15713501 14.84338379 C-18.15917695 16.28247916 -18.15363786 17.72160221 -18.14111328 19.16064453 C-18.12505937 21.3668406 -18.14095531 23.57120484 -18.16015625 25.77734375 C-18.15817384 27.17448322 -18.1543302 28.57162155 -18.1484375 29.96875 C-18.14505371 31.24427734 -18.14166992 32.51980469 -18.13818359 33.83398438 C-18.01008301 34.83751953 -17.88198242 35.84105469 -17.75 36.875 C-14.11804504 39.29630331 -12.36650652 39.08522785 -8.0625 39 C-5.979375 38.95875 -3.89625 38.9175 -1.75 38.875 C-1.75 34.255 -1.75 29.635 -1.75 24.875 C-4.39 24.875 -7.03 24.875 -9.75 24.875 C-10.08 23.555 -10.41 22.235 -10.75 20.875 C-4.15 20.875 2.45 20.875 9.25 20.875 C9.25 26.485 9.25 32.095 9.25 37.875 C0.92704808 42.63097253 -5.16794349 45.19525495 -14.75 43.875 C-21.04926142 41.39572988 -25.88631265 36.67455977 -28.859375 30.61328125 C-31.00349243 24.02106054 -31.01265473 15.59223548 -28.0625 9.25 C-26.11518761 6.04547541 -23.92624125 3.91686938 -20.75 1.875 C-19.88375 1.2975 -19.0175 0.72 -18.125 0.125 C-12.05304616 -2.12387179 -6.15815133 -1.8474454 0 0 Z " fill="#35373B" transform="translate(343.75,47.125)"/>
<path d="M0 0 C3.23193357 1.62201909 5.36169892 3.72339785 7 7 C7.08449628 8.7404417 7.10723024 10.48409722 7.09765625 12.2265625 C7.09443359 13.2578125 7.09121094 14.2890625 7.08789062 15.3515625 C7.07951172 16.43179688 7.07113281 17.51203125 7.0625 18.625 C7.05798828 19.71296875 7.05347656 20.8009375 7.04882812 21.921875 C7.0370179 24.61460662 7.01908205 27.30731009 7 30 C3.7 30 0.4 30 -3 30 C-3 29.34 -3 28.68 -3 28 C-3.54785156 28.32226562 -4.09570312 28.64453125 -4.66015625 28.9765625 C-8.93970892 30.84842026 -13.42559404 30.52781607 -18 30 C-21.1875 28.5 -21.1875 28.5 -23 26 C-23.63108638 23.20027133 -23.78456586 20.77032912 -23 18 C-19.90828671 13.73234538 -16.20447254 13.04608727 -11.25 12.25 C-10.55261719 12.12496094 -9.85523438 11.99992187 -9.13671875 11.87109375 C-7.42693324 11.5666114 -5.71374215 11.28136065 -4 11 C-4.66 9.02 -5.32 7.04 -6 5 C-9.28926495 4.49803706 -9.28926495 4.49803706 -13 5 C-14.49514995 6.3105649 -14.49514995 6.3105649 -15.6875 8 C-16.8321875 9.485 -16.8321875 9.485 -18 11 C-19.32 11 -20.64 11 -22 11 C-20.76141604 6.04566415 -19.27241667 3.81354269 -15 1 C-10.08437807 -0.63854064 -5.12377712 -0.62188324 0 0 Z " fill="#323538" transform="translate(382,60)"/>
<path d="M0 0 C3.23193357 1.62201909 5.36169892 3.72339785 7 7 C7.08449628 8.7404417 7.10723024 10.48409722 7.09765625 12.2265625 C7.09443359 13.2578125 7.09121094 14.2890625 7.08789062 15.3515625 C7.07951172 16.43179688 7.07113281 17.51203125 7.0625 18.625 C7.05798828 19.71296875 7.05347656 20.8009375 7.04882812 21.921875 C7.0370179 24.61460662 7.01908205 27.30731009 7 30 C3.7 30 0.4 30 -3 30 C-3 29.34 -3 28.68 -3 28 C-3.54785156 28.32226562 -4.09570312 28.64453125 -4.66015625 28.9765625 C-8.93970892 30.84842026 -13.42559404 30.52781607 -18 30 C-21.1875 28.5 -21.1875 28.5 -23 26 C-23.63108638 23.20027133 -23.78456586 20.77032912 -23 18 C-19.90828671 13.73234538 -16.20447254 13.04608727 -11.25 12.25 C-10.55261719 12.12496094 -9.85523438 11.99992187 -9.13671875 11.87109375 C-7.42693324 11.5666114 -5.71374215 11.28136065 -4 11 C-4.66 9.02 -5.32 7.04 -6 5 C-9.28926495 4.49803706 -9.28926495 4.49803706 -13 5 C-14.49514995 6.3105649 -14.49514995 6.3105649 -15.6875 8 C-16.8321875 9.485 -16.8321875 9.485 -18 11 C-19.32 11 -20.64 11 -22 11 C-20.76141604 6.04566415 -19.27241667 3.81354269 -15 1 C-10.08437807 -0.63854064 -5.12377712 -0.62188324 0 0 Z " fill="#323538" transform="translate(183,60)"/>
<path d="M0 0 C4.40830916 2.16407904 7.12843553 4.42506462 9 9 C9 11.64 9 14.28 9 17 C3.06 17 -2.88 17 -9 17 C-9 20.3 -9 23.6 -9 27 C-7.22694336 26.74412595 -5.45655392 26.46972261 -3.6875 26.1875 C-2.70136719 26.03667969 -1.71523438 25.88585937 -0.69921875 25.73046875 C2.12699269 24.96563295 3.1959128 24.24741238 5 22 C5.99 22.33 6.98 22.66 8 23 C6.53046382 26.87423175 4.6639665 28.16801675 1 30 C-3.65608942 30.75199291 -8.70871658 31.10402184 -13.04296875 29.015625 C-16.7988196 26.01094432 -18.76990785 22.92100191 -19.3359375 18.1953125 C-19.46932682 7.71091205 -19.46932682 7.71091205 -15 3 C-10.63453818 -0.85187808 -5.54054055 -0.79911643 0 0 Z " fill="#303336" transform="translate(447,60)"/>
<path d="M0 0 C4.40830916 2.16407904 7.12843553 4.42506462 9 9 C9 11.64 9 14.28 9 17 C3.06 17 -2.88 17 -9 17 C-9 20.3 -9 23.6 -9 27 C-7.22694336 26.74412595 -5.45655392 26.46972261 -3.6875 26.1875 C-2.70136719 26.03667969 -1.71523437 25.88585937 -0.69921875 25.73046875 C2.12699269 24.96563295 3.1959128 24.24741238 5 22 C5.99 22.33 6.98 22.66 8 23 C6.53046382 26.87423175 4.6639665 28.16801675 1 30 C-3.65608942 30.75199291 -8.70871658 31.10402184 -13.04296875 29.015625 C-16.7988196 26.01094432 -18.76990785 22.92100191 -19.3359375 18.1953125 C-19.46932682 7.71091205 -19.46932682 7.71091205 -15 3 C-10.63453818 -0.85187808 -5.54054055 -0.79911643 0 0 Z " fill="#303336" transform="translate(252,60)"/>
<path d="M0 0 C1.86901854 1.18523127 3.72105343 2.39736895 5.5625 3.625 C5.2325 4.945 4.9025 6.265 4.5625 7.625 C0.5625 5.625 0.5625 5.625 -1.1875 4.5625 C-4.54103662 3.16519308 -7.82783025 2.98596697 -11.4375 2.625 C-11.38713398 4.54429164 -11.38713398 4.54429164 -10.4375 6.625 C-7.77827666 8.32326925 -7.77827666 8.32326925 -4.5625 9.6875 C2.59452145 12.93833986 2.59452145 12.93833986 4.5625 15.625 C5.32720588 22.50735294 5.32720588 22.50735294 2.9375 26 C-2.06186785 29.4206201 -7.44071039 30.54241931 -13.4375 29.625 C-17.28575981 28.31062957 -20.58857828 27.10655765 -22.6640625 23.484375 C-22.91929687 22.87078125 -23.17453125 22.2571875 -23.4375 21.625 C-22.4475 21.295 -21.4575 20.965 -20.4375 20.625 C-18.78690847 21.64836675 -17.13656079 22.67213236 -15.48828125 23.69921875 C-11.91379967 25.31284186 -8.27587428 24.93833668 -4.4375 24.625 C-5.49529421 21.56400799 -6.33336847 20.68549687 -9.1875 19.02734375 C-10.26 18.54394531 -11.3325 18.06054688 -12.4375 17.5625 C-18.22854478 14.93843284 -18.22854478 14.93843284 -20.4375 11.625 C-21.11290029 4.53329694 -21.11290029 4.53329694 -18.625 1.1875 C-13.20355249 -2.6849625 -5.98655498 -2.39462199 0 0 Z " fill="#323538" transform="translate(288.4375,61.375)"/>
<path d="M0 0 C3.63 0 7.26 0 11 0 C11 14.19 11 28.38 11 43 C7.37 43 3.74 43 0 43 C0 28.81 0 14.62 0 0 Z " fill="#303337" transform="translate(88,47)"/>
<path d="M0 0 C0 14.52 0 29.04 0 44 C-3.3 44 -6.6 44 -10 44 C-10.12350083 38.21598128 -10.21429191 32.4327279 -10.2746582 26.64770508 C-10.29981914 24.67947016 -10.33395164 22.71132883 -10.37719727 20.7434082 C-10.4377807 17.91594381 -10.46619307 15.08971318 -10.48828125 12.26171875 C-10.51408768 11.38037766 -10.5398941 10.49903656 -10.56648254 9.59098816 C-10.56754137 7.2902158 -10.51528028 5.24210391 -10 3 C-6.52695598 -0.25514252 -4.90062663 0 0 0 Z " fill="#333539" transform="translate(422,46)"/>
<path d="M0 0 C0 14.52 0 29.04 0 44 C-3.3 44 -6.6 44 -10 44 C-10.12350083 38.21598128 -10.21429191 32.4327279 -10.2746582 26.64770508 C-10.29981914 24.67947016 -10.33395164 22.71132883 -10.37719727 20.7434082 C-10.4377807 17.91594381 -10.46619307 15.08971318 -10.48828125 12.26171875 C-10.51408768 11.38037766 -10.5398941 10.49903656 -10.56648254 9.59098816 C-10.56754137 7.2902158 -10.51528028 5.24210391 -10 3 C-6.52695598 -0.25514252 -4.90062663 0 0 0 Z " fill="#333539" transform="translate(405,46)"/>
<path d="M0 0 C6 0 6 0 8.34375 1.53125 C10.63218644 4.94231564 10.53211508 7.42138516 10.5 11.5 C10.5103125 12.8096875 10.520625 14.119375 10.53125 15.46875 C10 19 10 19 8.34375 21.46875 C6 23 6 23 0 23 C0 15.41 0 7.82 0 0 Z " fill="#FCFCFC" transform="translate(206,64)"/>
<path d="M0 0 C1.32 0 2.64 0 4 0 C4 12.21 4 24.42 4 37 C2.68 37 1.36 37 0 37 C0 24.79 0 12.58 0 0 Z " fill="#F4F4F4" transform="translate(91,50)"/>
<path d="M0 0 C0.66 0 1.32 0 2 0 C2 11.88 2 23.76 2 36 C1.01 36 0.02 36 -1 36 C-1.02465098 31.03377651 -1.04283649 26.06758834 -1.05493164 21.10131836 C-1.0599719 19.41055684 -1.06680405 17.71979971 -1.07543945 16.02905273 C-1.08751857 13.60399293 -1.09323123 11.17899056 -1.09765625 8.75390625 C-1.10281754 7.99348526 -1.10797882 7.23306427 -1.11329651 6.44960022 C-1.11349238 4.6326743 -1.06197277 2.81586873 -1 1 C-0.67 0.67 -0.34 0.34 0 0 Z " fill="#F5F5F5" transform="translate(417,50)"/>
<path d="M0 0 C0.66 0 1.32 0 2 0 C2 11.88 2 23.76 2 36 C1.01 36 0.02 36 -1 36 C-1.02465098 31.03377651 -1.04283649 26.06758834 -1.05493164 21.10131836 C-1.0599719 19.41055684 -1.06680405 17.71979971 -1.07543945 16.02905273 C-1.08751857 13.60399293 -1.09323123 11.17899056 -1.09765625 8.75390625 C-1.10281754 7.99348526 -1.10797882 7.23306427 -1.11329651 6.44960022 C-1.11349238 4.6326743 -1.06197277 2.81586873 -1 1 C-0.67 0.67 -0.34 0.34 0 0 Z " fill="#F5F5F5" transform="translate(400,50)"/>
<path d="M0 0 C0.99 0 1.98 0 3 0 C3.07418046 4.35990873 3.12861544 8.71948279 3.16479492 13.07983398 C3.17987768 14.56297199 3.20034689 16.04606544 3.22631836 17.52905273 C3.26272616 19.66140745 3.27973073 21.79317235 3.29296875 23.92578125 C3.3086792 25.20880127 3.32438965 26.49182129 3.34057617 27.8137207 C3 31 3 31 0 34 C0 22.78 0 11.56 0 0 Z " fill="#FEFEFE" transform="translate(220,64)"/>
<path d="M0 0 C0.23827469 2.85929624 0.43309153 5.19827208 0 8 C-2.25 10.5 -2.25 10.5 -5 12 C-6.32 12 -7.64 12 -9 12 C-9 8.37 -9 4.74 -9 1 C-4 0 -4 0 0 0 Z " fill="#FAFAFA" transform="translate(378,75)"/>
<path d="M0 0 C0.23827469 2.85929624 0.43309153 5.19827208 0 8 C-2.25 10.5 -2.25 10.5 -5 12 C-6.32 12 -7.64 12 -9 12 C-9 8.37 -9 4.74 -9 1 C-4 0 -4 0 0 0 Z " fill="#FAFAFA" transform="translate(179,75)"/>
<path d="M0 0 C2.64 0 5.28 0 8 0 C8 3.3 8 6.6 8 10 C5.36 10 2.72 10 0 10 C0 6.7 0 3.4 0 0 Z " fill="#F4F4F4" transform="translate(438,64)"/>
<path d="M0 0 C2.64 0 5.28 0 8 0 C8 3.3 8 6.6 8 10 C5.36 10 2.72 10 0 10 C0 6.7 0 3.4 0 0 Z " fill="#F4F4F4" transform="translate(243,64)"/>
<path d="M0 0 C0.53367187 0.75925781 1.06734375 1.51851563 1.6171875 2.30078125 C4.27046075 5.30637439 6.50143303 6.52706944 10.125 8.1875 C15.83143508 10.83143508 15.83143508 10.83143508 18 13 C17.625 15.625 17.625 15.625 17 18 C16.13375 16.948125 16.13375 16.948125 15.25 15.875 C11.73360323 12.24616031 7.13995112 10.64390638 2.546875 8.72265625 C0 7 0 7 -0.921875 3.87109375 C-0.94765625 2.92363281 -0.9734375 1.97617188 -1 1 C-0.67 0.67 -0.34 0.34 0 0 Z " fill="#EAEBEB" transform="translate(272,66)"/>
<path d="M0 0 C2.51467856 0.37003179 3.70129657 0.65337791 5.38793945 2.6105957 C5.79230225 3.29210693 6.19666504 3.97361816 6.61328125 4.67578125 C7.05607422 5.42150391 7.49886719 6.16722656 7.95507812 6.93554688 C8.40302734 7.71994141 8.85097656 8.50433594 9.3125 9.3125 C10.01342773 10.47168945 10.01342773 10.47168945 10.72851562 11.65429688 C11.38303711 12.77868164 11.38303711 12.77868164 12.05078125 13.92578125 C12.64886597 14.95312378 12.64886597 14.95312378 13.2590332 16.0012207 C14.15349638 18.4140609 13.85020572 19.61361574 13 22 C9.45917965 17.87445703 6.86417365 13.48446432 4.25 8.75 C3.63318359 7.65171875 3.63318359 7.65171875 3.00390625 6.53125 C0 1.14218231 0 1.14218231 0 0 Z " fill="#EBECEC" transform="translate(485,64)"/>
<path d="M0 0 C3.875 1.875 3.875 1.875 5 3 C5.08669432 4.4887186 5.10703494 5.981445 5.09765625 7.47265625 C5.09443359 8.37177734 5.09121094 9.27089844 5.08789062 10.19726562 C5.07951172 11.14279297 5.07113281 12.08832031 5.0625 13.0625 C5.05798828 14.01189453 5.05347656 14.96128906 5.04882812 15.93945312 C5.0370011 18.29303065 5.02052025 20.64648477 5 23 C4.01 23 3.02 23 2 23 C1.97494385 22.37432129 1.9498877 21.74864258 1.92407227 21.10400391 C1.80824727 18.27745381 1.68546015 15.45124831 1.5625 12.625 C1.52318359 11.64015625 1.48386719 10.6553125 1.44335938 9.640625 C1.40146484 8.69960937 1.35957031 7.75859375 1.31640625 6.7890625 C1.27974854 5.91975098 1.24309082 5.05043945 1.20532227 4.15478516 C1.12598456 1.9516738 1.12598456 1.9516738 0 0 Z " fill="#F5F5F5" transform="translate(380,64)"/>
<path d="M0 0 C3.875 1.875 3.875 1.875 5 3 C5.08669432 4.4887186 5.10703494 5.981445 5.09765625 7.47265625 C5.09443359 8.37177734 5.09121094 9.27089844 5.08789062 10.19726562 C5.07951172 11.14279297 5.07113281 12.08832031 5.0625 13.0625 C5.05798828 14.01189453 5.05347656 14.96128906 5.04882812 15.93945312 C5.0370011 18.29303065 5.02052025 20.64648477 5 23 C4.01 23 3.02 23 2 23 C1.97494385 22.37432129 1.9498877 21.74864258 1.92407227 21.10400391 C1.80824727 18.27745381 1.68546015 15.45124831 1.5625 12.625 C1.52318359 11.64015625 1.48386719 10.6553125 1.44335938 9.640625 C1.40146484 8.69960937 1.35957031 7.75859375 1.31640625 6.7890625 C1.27974854 5.91975098 1.24309082 5.05043945 1.20532227 4.15478516 C1.12598456 1.9516738 1.12598456 1.9516738 0 0 Z " fill="#F5F5F5" transform="translate(181,64)"/>
<path d="M0 0 C0.99 0 1.98 0 3 0 C3 7.26 3 14.52 3 22 C2.01 22 1.02 22 0 22 C0 14.74 0 7.48 0 0 Z " fill="#F5F5F6" transform="translate(466,64)"/>
<path d="M0 0 C0.99 0 1.98 0 3 0 C3 7.26 3 14.52 3 22 C2.01 22 1.02 22 0 22 C0 14.74 0 7.48 0 0 Z " fill="#F5F5F6" transform="translate(111,64)"/>
<path d="M0 0 C0.66 0 1.32 0 2 0 C3.20029908 2.40059817 3.11459743 3.89360649 3.09765625 6.5703125 C3.09443359 7.46621094 3.09121094 8.36210938 3.08789062 9.28515625 C3.07951172 10.22230469 3.07113281 11.15945312 3.0625 12.125 C3.05798828 13.06988281 3.05347656 14.01476562 3.04882812 14.98828125 C3.03702357 17.32558387 3.02055759 19.66276061 3 22 C2.01 22 1.02 22 0 22 C0 14.74 0 7.48 0 0 Z " fill="#E7E7E8" transform="translate(147,65)"/>
<path d="M0 0 C0.33 0 0.66 0 1 0 C1 7.26 1 14.52 1 22 C-2.91693384 18.08306616 -2.89357716 16.62294834 -3.25 11.1875 C-3.21753974 6.86217008 -1.92071716 3.84143431 0 0 Z " fill="#F3F3F3" transform="translate(320,57)"/>
<path d="M0 0 C1.485 0.99 1.485 0.99 3 2 C3.34057617 4.06298828 3.34057617 4.06298828 3.29296875 6.5703125 C3.28330078 7.46621094 3.27363281 8.36210938 3.26367188 9.28515625 C3.23853516 10.22230469 3.21339844 11.15945312 3.1875 12.125 C3.17396484 13.06988281 3.16042969 14.01476562 3.14648438 14.98828125 C3.11106306 17.32608779 3.06167271 19.66276237 3 22 C2.01 22 1.02 22 0 22 C0 14.74 0 7.48 0 0 Z " fill="#F8F8F8" transform="translate(129,65)"/>
<path d="M0 0 C1.65 0 3.3 0 5 0 C5 3.3 5 6.6 5 10 C3.35 10.66 1.7 11.32 0 12 C0 8.04 0 4.08 0 0 Z " fill="#E2E3E3" transform="translate(345,72)"/>
<path d="M0 0 C0.33 0 0.66 0 1 0 C1 5.61 1 11.22 1 17 C-1.91777164 14.08222836 -1.99163398 12.17568647 -2.1875 8.0625 C-2.15827158 4.88829383 -1.80180892 2.70271338 0 0 Z " fill="#EEEFEF" transform="translate(201,67)"/>
<path d="M0 0 C0.33 0 0.66 0 1 0 C1 5.28 1 10.56 1 16 C-1 15 -1 15 -1.625 13.375 C-2.38954721 8.53286768 -2.71527465 4.24261664 0 0 Z " fill="#F0F0F0" transform="translate(433,67)"/>
<path d="M0 0 C0.33 0 0.66 0 1 0 C1 5.28 1 10.56 1 16 C-1 15 -1 15 -1.625 13.375 C-2.38954721 8.53286768 -2.71527465 4.24261664 0 0 Z " fill="#F0F0F0" transform="translate(238,67)"/>
<path d="M0 0 C0.66 0 1.32 0 2 0 C2 2.64 2 5.28 2 8 C0.68 7.34 -0.64 6.68 -2 6 C-1.125 1.125 -1.125 1.125 0 0 Z " fill="#D6D7D8" transform="translate(364,78)"/>
<path d="M0 0 C0.66 0 1.32 0 2 0 C2 2.64 2 5.28 2 8 C0.68 7.34 -0.64 6.68 -2 6 C-1.125 1.125 -1.125 1.125 0 0 Z " fill="#D6D7D8" transform="translate(165,78)"/>
<path d="M0 0 C1.485 0.99 1.485 0.99 3 2 C3.1875 5.125 3.1875 5.125 3 8 C2.01 8 1.02 8 0 8 C0 5.36 0 2.72 0 0 Z " fill="#DCDCDD" transform="translate(449,66)"/>
<path d="M0 0 C1.485 0.99 1.485 0.99 3 2 C3.1875 5.125 3.1875 5.125 3 8 C2.01 8 1.02 8 0 8 C0 5.36 0 2.72 0 0 Z " fill="#DCDCDD" transform="translate(254,66)"/>
</svg>
